<svg id="Capa_1" data-name="Capa 1" xmlns="http://www.w3.org/2000/svg" xmlns:xlink="http://www.w3.org/1999/xlink" viewBox="0 0 65.17 75.93"><defs><style>.cls-1{fill:none;}.cls-2{clip-path:url(#clip-path);}.cls-3{fill:#fff;}</style><clipPath id="clip-path"><rect class="cls-1" x="-217.53" y="-784" width="1112.53" height="306.72" rx="18"/></clipPath></defs><g class="cls-2"><image width="1200" height="900" transform="translate(-260.88 -903.2) scale(1.23)" xlink:href="../eqGA8IgjoXBFN-22_v0MSAV_s2FFpJVYLZ2oXl3hEGqg.jpg"/></g><path class="cls-3" d="M55.33,75.93H9.84A9.85,9.85,0,0,1,0,66.09V9.84A9.85,9.85,0,0,1,9.84,0H46.58a1.1,1.1,0,0,1,.77.32L59.86,12.83a1.09,1.09,0,0,1,0,1.55,1.11,1.11,0,0,1-1.55,0L46.13,2.19H9.84A7.66,7.66,0,0,0,2.19,9.84V66.09a7.66,7.66,0,0,0,7.65,7.65H55.33A7.66,7.66,0,0,0,63,66.09V19.68H52.09a6.88,6.88,0,0,1-6.87-6.87V6.6a1.1,1.1,0,0,1,2.19,0v6.21a4.68,4.68,0,0,0,4.68,4.68h12a1.1,1.1,0,0,1,1.1,1.1v47.5A9.86,9.86,0,0,1,55.33,75.93Z"/><path class="cls-3" d="M20.25,33.24H14.83a3,3,0,0,1-3-3V24.8a3,3,0,0,1,3-3h5.42a3,3,0,0,1,3,3v5.42A3,3,0,0,1,20.25,33.24ZM14.83,24a.84.84,0,0,0-.83.83v5.42a.83.83,0,0,0,.83.83h5.42a.83.83,0,0,0,.83-.83V24.8a.83.83,0,0,0-.83-.83Z"/><path class="cls-3" d="M20.25,63.77H14.83a3,3,0,0,1-3-3V55.33a3,3,0,0,1,3-3h5.42a3,3,0,0,1,3,3v5.42A3,3,0,0,1,20.25,63.77ZM14.83,54.5a.84.84,0,0,0-.83.83v5.42a.84.84,0,0,0,.83.83h5.42a.83.83,0,0,0,.83-.83V55.33a.83.83,0,0,0-.83-.83Z"/><path class="cls-3" d="M16.58,47.23a1.1,1.1,0,0,1-.78-.32l-3.67-3.67a1.09,1.09,0,0,1,0-1.55,1.11,1.11,0,0,1,1.55,0l2.8,2.8,5.62-7.2a1.09,1.09,0,1,1,1.72,1.35l-6.38,8.17a1.08,1.08,0,0,1-.8.42Z"/><path class="cls-3" d="M42.29,24.58H28a1.1,1.1,0,1,1,0-2.19H42.29a1.1,1.1,0,1,1,0,2.19Z"/><path class="cls-3" d="M34.33,32.37H28a1.1,1.1,0,1,1,0-2.19h6.38a1.1,1.1,0,1,1,0,2.19Z"/><path class="cls-3" d="M51.54,32.37h-12a1.1,1.1,0,0,1,0-2.19h12a1.1,1.1,0,1,1,0,2.19Z"/><path class="cls-3" d="M32.58,39.54H28a1.1,1.1,0,1,1,0-2.19h4.63a1.1,1.1,0,1,1,0,2.19Z"/><path class="cls-3" d="M49.38,39.54H36.87a1.1,1.1,0,0,1,0-2.19H49.38a1.1,1.1,0,0,1,0,2.19Z"/><path class="cls-3" d="M39.84,47.23H28a1.09,1.09,0,1,1,0-2.18H39.84a1.09,1.09,0,1,1,0,2.18Z"/><path class="cls-3" d="M53,47.23H45a1.09,1.09,0,0,1,0-2.18h8a1.09,1.09,0,1,1,0,2.18Z"/><path class="cls-3" d="M39.06,54.5H28a1.1,1.1,0,1,1,0-2.19H39.06a1.1,1.1,0,0,1,0,2.19Z"/><path class="cls-3" d="M49,54.5H43.12a1.1,1.1,0,0,1,0-2.19H49a1.1,1.1,0,1,1,0,2.19Z"/><path class="cls-3" d="M40.19,62.37H28a1.1,1.1,0,1,1,0-2.19H40.19a1.1,1.1,0,1,1,0,2.19Z"/></svg>