<svg id="Capa_1" data-name="Capa 1" xmlns="http://www.w3.org/2000/svg" xmlns:xlink="http://www.w3.org/1999/xlink" viewBox="0 0 33.91 33.91"><defs><style>.cls-1{fill:none;}.cls-2{clip-path:url(#clip-path);}.cls-3{fill:#41b07d;}.cls-4{fill:#fff;}</style><clipPath id="clip-path"><rect class="cls-1" x="-242.03" y="-459.47" width="1112.53" height="306.72" rx="18"/></clipPath></defs><g class="cls-2"><image width="1200" height="900" transform="translate(-285.38 -578.66) scale(1.23)" xlink:href="../eqGA8IgjoXBFN-22_v0MSAV_s2FFpJVYLZ2oXl3hEGqg.jpg"/></g><rect class="cls-3" width="33.91" height="33.91" rx="6"/><path class="cls-4" d="M7.24,23.09l.09.07a10.87,10.87,0,0,0,2.8,1.26,11.89,11.89,0,0,0,4.82.35A10.37,10.37,0,0,0,19.72,23a11.5,11.5,0,0,0,5-9.83.38.38,0,0,1,.11-.24c.29-.27.62-.51.89-.79s.65-.75,1-1.12l0-.05a8.43,8.43,0,0,1-2.1.58c.32-.31.66-.61,1-.95a3.17,3.17,0,0,0,.64-1.22L26,9.43a8.2,8.2,0,0,1-2.19.84.27.27,0,0,1-.27-.07,4,4,0,0,0-6.78,2.59c0,.38,0,.76,0,1.16a11.38,11.38,0,0,1-8.2-4.17A3.91,3.91,0,0,0,8,12.27,4,4,0,0,0,9.76,15.1,4.11,4.11,0,0,1,8,14.63a4,4,0,0,0,3.13,4,4.78,4.78,0,0,1-1.77.07,4.15,4.15,0,0,0,3.73,2.79A8.19,8.19,0,0,1,7.24,23.09Z"/><path class="cls-4" d="M7.24,23.09a8.19,8.19,0,0,0,5.85-1.64,4.15,4.15,0,0,1-3.73-2.79,4.78,4.78,0,0,0,1.77-.07,4,4,0,0,1-3.13-4,4.11,4.11,0,0,0,1.76.47A4,4,0,0,1,8,12.27a3.91,3.91,0,0,1,.51-2.49A11.38,11.38,0,0,0,16.75,14c0-.4-.05-.78,0-1.16A4,4,0,0,1,23.5,10.2a.27.27,0,0,0,.27.07A8.2,8.2,0,0,0,26,9.43l.17-.08a3.17,3.17,0,0,1-.64,1.22c-.3.34-.64.64-1,.95a8.43,8.43,0,0,0,2.1-.58l0,.05c-.32.37-.62.76-1,1.12s-.6.52-.89.79a.38.38,0,0,0-.11.24,11.5,11.5,0,0,1-5,9.83A10.37,10.37,0,0,1,15,24.77a11.89,11.89,0,0,1-4.82-.35,10.87,10.87,0,0,1-2.8-1.26Z"/></svg>