<svg id="Capa_1" data-name="Capa 1" xmlns="http://www.w3.org/2000/svg" xmlns:xlink="http://www.w3.org/1999/xlink" viewBox="0 0 33.91 33.91"><defs><style>.cls-1{fill:none;}.cls-2{clip-path:url(#clip-path);}.cls-3{fill:#41b07d;}.cls-4{fill:#fff;}</style><clipPath id="clip-path"><rect class="cls-1" x="-290.81" y="-459.47" width="1112.53" height="306.72" rx="18"/></clipPath></defs><g class="cls-2"><image width="1200" height="900" transform="translate(-334.16 -578.66) scale(1.23)" xlink:href="../eqGA8IgjoXBFN-22_v0MSAV_s2FFpJVYLZ2oXl3hEGqg.jpg"/></g><rect class="cls-3" width="33.91" height="33.91" rx="6"/><path class="cls-4" d="M14.57,7.21h4.87l.68,0a10.73,10.73,0,0,1,2.4.23,4.89,4.89,0,0,1,3.35,2.41,6.36,6.36,0,0,1,.76,2.82c.12,2.63.11,5.25,0,7.88a9.86,9.86,0,0,1-.23,1.88,4.89,4.89,0,0,1-3.68,3.9,9.28,9.28,0,0,1-2.47.29l-5.78,0a14.13,14.13,0,0,1-2.9-.23A5,5,0,0,1,8.05,24a6.58,6.58,0,0,1-.75-2.81c0-.32,0-.65-.08-1V13.61l0-.28c.07-.58.1-1.17.2-1.74a5.06,5.06,0,0,1,4.14-4.15,14.05,14.05,0,0,1,2.5-.2Zm10.35,9.48h0c0-.72,0-1.45,0-2.17A21.89,21.89,0,0,0,24.75,12a3,3,0,0,0-2.4-2.67A8.06,8.06,0,0,0,20.67,9C19.33,9,18,9,16.64,9c-1,0-1.94,0-2.91,0a8.56,8.56,0,0,0-2.14.23,3.06,3.06,0,0,0-2.28,2.09A8.12,8.12,0,0,0,9,13.92c0,2.07,0,4.14,0,6.21A8.94,8.94,0,0,0,9.14,22a3.19,3.19,0,0,0,2.76,2.74,12.62,12.62,0,0,0,1.94.19c1.84,0,3.68,0,5.52,0a19.59,19.59,0,0,0,2.54-.18,3.18,3.18,0,0,0,2.8-2.6,8.54,8.54,0,0,0,.21-1.75C24.94,19.17,24.92,17.93,24.92,16.69Z"/><path class="cls-4" d="M17,12a5,5,0,1,1-5,5A5,5,0,0,1,17,12Zm3.25,5A3.24,3.24,0,1,0,17,20.2,3.23,3.23,0,0,0,20.21,17Z"/><path class="cls-4" d="M23.33,11.75a1.17,1.17,0,1,1-1.16-1.16A1.15,1.15,0,0,1,23.33,11.75Z"/></svg>