<svg id="Capa_1" data-name="Capa 1" xmlns="http://www.w3.org/2000/svg" xmlns:xlink="http://www.w3.org/1999/xlink" viewBox="0 0 33.91 33.91"><defs><style>.cls-1{fill:none;}.cls-2{clip-path:url(#clip-path);}.cls-3{fill:#41b07d;}.cls-4{fill:#fff;}</style><clipPath id="clip-path"><rect class="cls-1" x="-339.59" y="-459.47" width="1112.53" height="306.72" rx="18"/></clipPath></defs><g class="cls-2"><image width="1200" height="900" transform="translate(-382.94 -578.66) scale(1.23)" xlink:href="../eqGA8IgjoXBFN-22_v0MSAV_s2FFpJVYLZ2oXl3hEGqg.jpg"/></g><rect class="cls-3" width="33.91" height="33.91" rx="6"/><path class="cls-4" d="M14.9,26.69c0-.08,0-.17,0-.25V17.8h-3V14.34h3v-.25c0-.91,0-1.81,0-2.72a4.33,4.33,0,0,1,1.14-2.91,4,4,0,0,1,2.14-1.15,8.62,8.62,0,0,1,2-.1c.55,0,1.1.07,1.65.11l.14,0v3.09h-.2c-.68,0-1.36,0-2,0a1.22,1.22,0,0,0-1.28,1.29c0,.84,0,1.67,0,2.51l0,.06h3.4l-.45,3.46h-3a1.62,1.62,0,0,0,0,.18v8.59s0,.08,0,.13Z"/></svg>