<svg id="Capa_1" data-name="Capa 1" xmlns="http://www.w3.org/2000/svg" xmlns:xlink="http://www.w3.org/1999/xlink" viewBox="0 0 71.1 71.1"><defs><style>.cls-1{fill:none;}.cls-2{clip-path:url(#clip-path);}.cls-3{opacity:0.46;fill:url(#Degradado_sin_nombre_15);}.cls-4{fill:#17375d;}</style><clipPath id="clip-path"><rect class="cls-1" x="-684.17" y="-331.8" width="1112.53" height="306.72" rx="18"/></clipPath><linearGradient id="Degradado_sin_nombre_15" x1="16.97" y1="59.78" x2="47.35" y2="29.41" gradientUnits="userSpaceOnUse"><stop offset="0" stop-color="#41b07d"/><stop offset="1" stop-color="#15375c"/></linearGradient></defs><g class="cls-2"><image width="1200" height="900" transform="translate(-727.52 -451) scale(1.23)" xlink:href="../eqGA8IgjoXBFN-22_v0MSAV_s2FFpJVYLZ2oXl3hEGqg.jpg"/></g><rect class="cls-3" x="15.21" y="27.64" width="33.9" height="33.9" rx="6"/><rect class="cls-1" x="13.05" y="9.58" width="45" height="50"/><path class="cls-4" d="M58.05,29.9V18.76a1.06,1.06,0,0,0-.56-.93L42.27,9.71l-.19-.08L42,9.58a1.24,1.24,0,0,0-.47,0h-.07l-.16.06L26.07,17.76a1.1,1.1,0,0,0-.41.39,1,1,0,0,0-.14.55V29.9a23.72,23.72,0,0,0,.29,3.76v.12a24.51,24.51,0,0,0,14.34,18.5l1.18.52.18.05h.43a.59.59,0,0,0,.19-.05l1.19-.52a24.65,24.65,0,0,0,9.52-7.45,24.34,24.34,0,0,0,4.81-11v-.15A23.38,23.38,0,0,0,58.05,29.9ZM27.62,19.39l13.1-7V32.47H27.78a22,22,0,0,1-.16-2.57ZM42.86,50.21V34.57H55.39A22.4,22.4,0,0,1,42.83,50.21Z"/></svg>