<svg id="Capa_1" data-name="Capa 1" xmlns="http://www.w3.org/2000/svg" xmlns:xlink="http://www.w3.org/1999/xlink" viewBox="0 0 76.29 80.31"><defs><style>.cls-1{fill:none;}.cls-2{clip-path:url(#clip-path);}.cls-3{fill:#fff;}</style><clipPath id="clip-path"><rect class="cls-1" x="-330.16" y="-780.88" width="1112.53" height="306.72" rx="18"/></clipPath></defs><g class="cls-2"><image width="1200" height="900" transform="translate(-373.51 -900.08) scale(1.23)" xlink:href="../eqGA8IgjoXBFN-22_v0MSAV_s2FFpJVYLZ2oXl3hEGqg.jpg"/></g><path class="cls-3" d="M8.9,50.61a1,1,0,0,1-.75-.33A28.15,28.15,0,0,1,0,30.8C0,13.82,16.23,0,36.18,0S72.37,13.82,72.37,30.8a27.33,27.33,0,0,1-4.56,15,1.05,1.05,0,1,1-1.76-1.15A25.2,25.2,0,0,0,70.26,30.8C70.26,15,55,2.1,36.18,2.1S2.1,15,2.1,30.8a26.12,26.12,0,0,0,7.56,18,1,1,0,0,1,0,1.48A1,1,0,0,1,8.9,50.61Z"/><path class="cls-3" d="M36.18,61.61a41.18,41.18,0,0,1-15.6-3,1.05,1.05,0,0,1,.8-2,39,39,0,0,0,14.8,2.85,1,1,0,0,1,0,2.1Z"/><path class="cls-3" d="M7.22,64.18a3.65,3.65,0,0,1-2.59-1.1,3.62,3.62,0,0,1-.77-4l4.2-9.76A1.05,1.05,0,1,1,10,50.1l-4.2,9.76a1.58,1.58,0,0,0,2.07,2.08l12.57-5.33a1.05,1.05,0,0,1,.82,1.94L8.68,63.88A3.78,3.78,0,0,1,7.22,64.18Z"/><path class="cls-3" d="M22.74,34.9a4.1,4.1,0,1,1,4.09-4.1A4.11,4.11,0,0,1,22.74,34.9Zm0-6.09a2,2,0,1,0,2,2A2,2,0,0,0,22.74,28.81Z"/><path class="cls-3" d="M35.73,34.9a4.1,4.1,0,1,1,4.1-4.1A4.1,4.1,0,0,1,35.73,34.9Zm0-6.09a2,2,0,1,0,2,2A2,2,0,0,0,35.73,28.81Z"/><path class="cls-3" d="M47.54,34.9a4.1,4.1,0,1,1,4.09-4.1A4.11,4.11,0,0,1,47.54,34.9Zm0-6.09a2,2,0,1,0,2,2A2,2,0,0,0,47.54,28.81Z"/><path class="cls-3" d="M66.29,80.31A4.26,4.26,0,0,1,63.18,79L45.74,60.43a1,1,0,0,1,0-1.49l10.43-9.81a1,1,0,0,1,.75-.28,1.06,1.06,0,0,1,.73.33L75.14,67.72a4.27,4.27,0,0,1-.19,6h0l-5.74,5.4A4.25,4.25,0,0,1,66.29,80.31ZM48,59.75,64.71,77.53a2.16,2.16,0,0,0,3.06.09l5.74-5.4a2.17,2.17,0,0,0,.1-3.06L56.89,51.38ZM74.23,73h0Z"/><path class="cls-3" d="M46.5,60.76a1,1,0,0,1-1-1l-1-11.46a1.1,1.1,0,0,1,.33-.86,1,1,0,0,1,.87-.27l11.39,1.66a1.05,1.05,0,1,1-.3,2.08L46.71,49.47l.84,10.15a1,1,0,0,1-1,1.13Z"/><path class="cls-3" d="M61.19,76.37a1.05,1.05,0,0,1-.72-1.82l10.43-9.8a1,1,0,0,1,1.48,0,1.06,1.06,0,0,1,0,1.49L61.91,76.09A1,1,0,0,1,61.19,76.37Z"/><path class="cls-3" d="M66.4,71.47a1,1,0,0,1-.76-.33L51,55.52A1,1,0,0,1,51,54a1.06,1.06,0,0,1,1.49,0L67.17,69.7a1,1,0,0,1,0,1.48A1,1,0,0,1,66.4,71.47Z"/></svg>