<svg id="Capa_1" data-name="Capa 1" xmlns="http://www.w3.org/2000/svg" xmlns:xlink="http://www.w3.org/1999/xlink" viewBox="0 0 71.1 71.1"><defs><style>.cls-1{fill:none;}.cls-2{clip-path:url(#clip-path);}.cls-3{opacity:0.46;fill:url(#Degradado_sin_nombre_15);}.cls-4{fill:#17375d;}</style><clipPath id="clip-path"><rect class="cls-1" x="-304.61" y="-594.86" width="1112.53" height="306.72" rx="18"/></clipPath><linearGradient id="Degradado_sin_nombre_15" x1="30.24" y1="65.6" x2="69.32" y2="26.52" gradientUnits="userSpaceOnUse"><stop offset="0" stop-color="#41b07d"/><stop offset="1" stop-color="#15375c"/></linearGradient></defs><g class="cls-2"><image width="1200" height="900" transform="translate(-347.96 -714.05) scale(1.23)" xlink:href="../eqGA8IgjoXBFN-22_v0MSAV_s2FFpJVYLZ2oXl3hEGqg.jpg"/></g><rect class="cls-3" x="28.48" y="24.75" width="42.61" height="42.61" rx="6"/><path class="cls-4" d="M67.36,21.82a1,1,0,0,0-1.33-.5L50.78,28.19v-2.8l16.08-7.25a1,1,0,0,0-.06-1.84L34.09,3.81a1,1,0,0,0-.72,0L.66,16.3A1,1,0,0,0,.6,18.14L33.27,32.9a1,1,0,0,0,.42.09,1,1,0,0,0,.41-.09l14.68-6.61v2.8l-15.09,6.8L1.43,21.32A1,1,0,1,0,.6,23.14L33.27,37.9a1,1,0,0,0,.42.09,1,1,0,0,0,.41-.09l14.68-6.61V44.51L46.22,46.6A19.8,19.8,0,0,1,34.69,51v-11a1,1,0,0,0-2,0V51A19.8,19.8,0,0,1,21.15,46.6L14.29,41V32a1,1,0,1,0-2,0v9.48a1,1,0,0,0,.36.78l7.23,5.91a21.8,21.8,0,0,0,13.73,4.9h.15a21.8,21.8,0,0,0,13.73-4.9l1.29-1.06v6.28a4,4,0,0,0-3,3.87A3.82,3.82,0,0,0,46,58.37a2.78,2.78,0,0,0-.51.41c-1.62,1.76-1.33,6.14-1.26,7a1,1,0,0,0,1,.91h.09a1,1,0,0,0,.91-1.08c-.15-1.78,0-4.65.74-5.48l.06,0a4,4,0,0,0,1.81,1V65.7a1,1,0,0,0,2,0V61.11a3.87,3.87,0,0,0,1.81-1l0,0c.76.82.89,3.7.74,5.48a1,1,0,0,0,.92,1.08h.08a1,1,0,0,0,1-.91c.07-.86.35-5.25-1.27-7a2.8,2.8,0,0,0-.5-.41,3.82,3.82,0,0,0,.19-1.13,4,4,0,0,0-3-3.87V45.45l3.94-3.21a1,1,0,0,0,.37-.78V32a1,1,0,0,0-2,0v9l-2.31,1.88V30.39l16.08-7.25A1,1,0,0,0,67.36,21.82ZM33.69,30.89,3.62,17.31,33.73,5.81l30.11,11.5-14.1,6.35-11.2-4a3.13,3.13,0,0,0-.83-3.28A4.77,4.77,0,0,0,33.77,15h0A4.31,4.31,0,0,0,29.69,19a3.35,3.35,0,0,0,1.54,2.72,4.54,4.54,0,0,0,2.75.89,5.72,5.72,0,0,0,1.79-.29,4.41,4.41,0,0,0,1.59-.88l9.74,3.45Zm2.86-11.61a2.28,2.28,0,0,1-1.39,1.1,2.93,2.93,0,0,1-2.74-.3A1.49,1.49,0,0,1,31.69,19a2.33,2.33,0,0,1,2.21-2,2.8,2.8,0,0,1,2.36.75A1.17,1.17,0,0,1,36.55,19.28Zm15.25,38a2,2,0,1,1-2-2A2,2,0,0,1,51.8,57.24Z"/></svg>