<svg id="Capa_1" data-name="Capa 1" xmlns="http://www.w3.org/2000/svg" xmlns:xlink="http://www.w3.org/1999/xlink" viewBox="0 0 71.1 71.1"><defs><style>.cls-1{fill:none;}.cls-2{clip-path:url(#clip-path);}.cls-3{opacity:0.46;fill:url(#Degradado_sin_nombre_15);}.cls-4{fill:#17375d;}</style><clipPath id="clip-path"><rect class="cls-1" x="-216.05" y="-594.86" width="1112.53" height="306.72" rx="18"/></clipPath><linearGradient id="Degradado_sin_nombre_15" x1="28.94" y1="42.12" x2="68.02" y2="3.04" gradientUnits="userSpaceOnUse"><stop offset="0" stop-color="#41b07d"/><stop offset="1" stop-color="#15375c"/></linearGradient></defs><g class="cls-2"><image width="1200" height="900" transform="translate(-259.4 -714.05) scale(1.23)" xlink:href="../eqGA8IgjoXBFN-22_v0MSAV_s2FFpJVYLZ2oXl3hEGqg.jpg"/></g><rect class="cls-3" x="27.18" y="1.27" width="42.61" height="42.61" rx="6"/><path class="cls-4" d="M59.44,57.91a1,1,0,0,1-1-1V18.75a8.1,8.1,0,0,0-8.09-8.09H9.76A6.44,6.44,0,0,0,5,21.45a1,1,0,1,1-1.47,1.36A8.44,8.44,0,0,1,9.76,8.66H50.35A10.1,10.1,0,0,1,60.44,18.75V56.91A1,1,0,0,1,59.44,57.91Z"/><path class="cls-4" d="M33.07,67H20.47A10.11,10.11,0,0,1,10.38,56.91V18.75a1,1,0,0,1,2,0V56.91A8.1,8.1,0,0,0,20.47,65h12.6a1,1,0,0,1,0,2Z"/><path class="cls-4" d="M24.64,24.58H18.16a1,1,0,1,1,0-2h6.48a1,1,0,0,1,0,2Z"/><path class="cls-4" d="M36.53,24.58h-7.2a1,1,0,0,1,0-2h7.2a1,1,0,0,1,0,2Z"/><path class="cls-4" d="M46.72,24.58h-4.5a1,1,0,0,1,0-2h4.5a1,1,0,0,1,0,2Z"/><path class="cls-4" d="M33.76,30.46H18.16a1,1,0,0,1,0-2h15.6a1,1,0,0,1,0,2Z"/><path class="cls-4" d="M49.54,30.46H38.44a1,1,0,0,1,0-2h11.1a1,1,0,0,1,0,2Z"/><path class="cls-4" d="M25,37.06H18.16a1,1,0,1,1,0-2H25a1,1,0,0,1,0,2Z"/><path class="cls-4" d="M38.86,37.06h-8.7a1,1,0,1,1,0-2h8.7a1,1,0,0,1,0,2Z"/><path class="cls-4" d="M50.56,37.06H44a1,1,0,0,1,0-2h6.57a1,1,0,0,1,0,2Z"/><path class="cls-4" d="M32,43.18H18.16a1,1,0,0,1,0-2H32a1,1,0,0,1,0,2Z"/><path class="cls-4" d="M49.3,43.18H36.82a1,1,0,0,1,0-2H49.3a1,1,0,0,1,0,2Z"/><path class="cls-4" d="M47.27,61.64a6.21,6.21,0,1,1,6.21-6.2A6.21,6.21,0,0,1,47.27,61.64Zm0-10.41a4.21,4.21,0,1,0,4.21,4.21A4.21,4.21,0,0,0,47.27,51.23Z"/><path class="cls-4" d="M40.82,69.83a3.09,3.09,0,0,1-1.66-.49,3.14,3.14,0,0,1-1-4.32l2.44-3.85A1,1,0,0,1,42,60.86a1,1,0,0,1,.31,1.38l-2.44,3.85a1.13,1.13,0,0,0,.35,1.56,1.14,1.14,0,0,0,.85.15,1.17,1.17,0,0,0,.71-.5l2.43-3.85a1,1,0,1,1,1.69,1.07l-2.43,3.85a3.15,3.15,0,0,1-2,1.38A3.34,3.34,0,0,1,40.82,69.83Z"/><path class="cls-4" d="M53.73,69.83a3.27,3.27,0,0,1-.7-.08,3.12,3.12,0,0,1-2-1.38l-2.44-3.85a1,1,0,0,1,.31-1.38,1,1,0,0,1,1.38.31l2.44,3.85a1.13,1.13,0,1,0,1.91-1.21l-2.44-3.85a1,1,0,1,1,1.69-1.07L56.36,65a3.14,3.14,0,0,1-2.63,4.81Z"/></svg>