<svg id="Capa_1" data-name="Capa 1" xmlns="http://www.w3.org/2000/svg" xmlns:xlink="http://www.w3.org/1999/xlink" viewBox="0 0 71.1 71.1"><defs><style>.cls-1{fill:none;}.cls-2{clip-path:url(#clip-path);}.cls-3{opacity:0.46;fill:url(#Degradado_sin_nombre_15);}.cls-4{fill:#17375d;}</style><clipPath id="clip-path"><rect class="cls-1" x="-130.73" y="-594.86" width="1112.53" height="306.72" rx="18"/></clipPath><linearGradient id="Degradado_sin_nombre_15" x1="10.85" y1="69.34" x2="49.94" y2="30.26" gradientUnits="userSpaceOnUse"><stop offset="0" stop-color="#41b07d"/><stop offset="1" stop-color="#15375c"/></linearGradient></defs><g class="cls-2"><image width="1200" height="900" transform="translate(-174.08 -714.05) scale(1.23)" xlink:href="../eqGA8IgjoXBFN-22_v0MSAV_s2FFpJVYLZ2oXl3hEGqg.jpg"/></g><rect class="cls-3" x="9.09" y="28.49" width="42.61" height="42.61" rx="6"/><path class="cls-4" d="M49.86,21.53V8.93A8.93,8.93,0,1,0,32,8.93v12.6a21.08,21.08,0,1,0,17.85,0ZM60,40.6A19.06,19.06,0,1,1,40.93,21.54,19.08,19.08,0,0,1,60,40.6ZM47.84,20.71a20.66,20.66,0,0,0-13.82,0V8.93a6.91,6.91,0,0,1,13.82,0Z"/><path class="cls-4" d="M47.79,34.89,52,30.68a1,1,0,0,0,0-1.43,1,1,0,0,0-1.42,0L46.33,33.5a8.94,8.94,0,0,0-4.39-1.77V25.78a1,1,0,0,0-2,0v5.95a8.94,8.94,0,0,0-4.39,1.77l-4.25-4.25a1,1,0,1,0-1.42,1.43l4.21,4.21a8.84,8.84,0,0,0-2,4.7H26.12a1,1,0,0,0,0,2h5.95a8.84,8.84,0,0,0,2,4.7l-4.21,4.21a1,1,0,0,0-.3.71,1,1,0,0,0,.3.72,1,1,0,0,0,1.42,0l4.25-4.25a8.94,8.94,0,0,0,4.39,1.77v5.95a1,1,0,0,0,2,0V49.46a8.94,8.94,0,0,0,4.39-1.77l4.24,4.25a1,1,0,0,0,.72.29,1,1,0,0,0,.71-.29,1,1,0,0,0,.3-.72,1,1,0,0,0-.3-.71L47.79,46.3a8.84,8.84,0,0,0,2-4.7h5.94a1,1,0,1,0,0-2H49.8A8.84,8.84,0,0,0,47.79,34.89ZM40.93,47.5a6.91,6.91,0,1,1,6.91-6.9A6.92,6.92,0,0,1,40.93,47.5Z"/></svg>