<svg id="Capa_1" data-name="Capa 1" xmlns="http://www.w3.org/2000/svg" xmlns:xlink="http://www.w3.org/1999/xlink" viewBox="0 0 71.1 71.1"><defs><style>.cls-1{fill:none;}.cls-2{clip-path:url(#clip-path);}.cls-3{opacity:0.46;fill:url(#Degradado_sin_nombre_15);}.cls-4{fill:#17375d;}</style><clipPath id="clip-path"><rect class="cls-1" x="-767.69" y="-331.8" width="1112.53" height="306.72" rx="18"/></clipPath><linearGradient id="Degradado_sin_nombre_15" x1="30.62" y1="40.67" x2="61" y2="10.3" gradientUnits="userSpaceOnUse"><stop offset="0" stop-color="#41b07d"/><stop offset="1" stop-color="#15375c"/></linearGradient></defs><g class="cls-2"><image width="1200" height="900" transform="translate(-811.04 -451) scale(1.23)" xlink:href="../eqGA8IgjoXBFN-22_v0MSAV_s2FFpJVYLZ2oXl3hEGqg.jpg"/></g><rect class="cls-3" x="28.86" y="8.53" width="33.9" height="33.9" rx="6"/><path class="cls-4" d="M52.61,19.56a1.13,1.13,0,0,0,0-.32V19.1a1.77,1.77,0,0,0-.21-.32v-.05a1,1,0,0,0-.36-.25l-.11,0a1.14,1.14,0,0,0-.32-.07h-.14a1,1,0,0,0-.34.06H51L9.12,35.91a1.3,1.3,0,0,0-.58.48,1.26,1.26,0,0,0-.2.73,1.26,1.26,0,0,0,.85,1.16l16,5.95,7.54,17.56a1.31,1.31,0,0,0,.47.57,1.25,1.25,0,0,0,.7.21,1.31,1.31,0,0,0,1.18-.78L52.52,20.14a1,1,0,0,0,.09-.42Zm-7.31,4L25.87,41.74,13.06,37ZM34,58,27.73,43.55,47.86,24.61Z"/></svg>