<svg id="Capa_1" data-name="Capa 1" xmlns="http://www.w3.org/2000/svg" xmlns:xlink="http://www.w3.org/1999/xlink" viewBox="0 0 82.36 82.17"><defs><style>.cls-1{fill:none;}.cls-2{clip-path:url(#clip-path);}.cls-3{fill:#fff;}</style><clipPath id="clip-path"><rect class="cls-1" x="-442.23" y="-780.88" width="1112.53" height="306.72" rx="18"/></clipPath></defs><g class="cls-2"><image width="1200" height="900" transform="translate(-485.58 -900.08) scale(1.23)" xlink:href="../eqGA8IgjoXBFN-22_v0MSAV_s2FFpJVYLZ2oXl3hEGqg.jpg"/></g><path class="cls-3" d="M44.84,22.42A22.42,22.42,0,1,0,22.42,44.84,22.45,22.45,0,0,0,44.84,22.42Zm-42.39,0a20,20,0,1,1,20,20A20,20,0,0,1,2.45,22.42Z"/><path class="cls-3" d="M59.94,37.33A22.42,22.42,0,1,0,82.36,59.75,22.45,22.45,0,0,0,59.94,37.33Zm0,42.38a20,20,0,1,1,20-20A20,20,0,0,1,59.94,79.71Z"/><path class="cls-3" d="M72.26,32a1.24,1.24,0,0,0,1.19.91,1.22,1.22,0,0,0,1.18-1.55,34.84,34.84,0,0,0-1.89-5.24,1.22,1.22,0,0,0-2.23,1A32.5,32.5,0,0,1,72.26,32Z"/><path class="cls-3" d="M29.29,64.33a1.22,1.22,0,0,0-2.17,1.13l2.78,5.35A32.38,32.38,0,0,1,10.29,50.43,1.22,1.22,0,1,0,8,51.18,34.8,34.8,0,0,0,29.72,73.34l-5.86,3.27a1.22,1.22,0,0,0,.59,2.29,1.27,1.27,0,0,0,.6-.15l8.07-4.49a1.22,1.22,0,0,0,.49-1.64Z"/><path class="cls-3" d="M53.1,18.44a1.22,1.22,0,0,0,1.12.72,1.25,1.25,0,0,0,.5-.11,1.23,1.23,0,0,0,.61-1.63L52,10A32.63,32.63,0,0,1,67.61,22a1.22,1.22,0,0,0,2-1.4A34.56,34.56,0,0,0,53.13,7.85l5.85-3a1.23,1.23,0,0,0-1.12-2.18L49.24,7.09a1.23,1.23,0,0,0-.55,1.6Z"/><path class="cls-3" d="M21.21,33.43H23.8V30.32a5.25,5.25,0,0,0,3.36-1.54,4.23,4.23,0,0,0,1-2.84,4.39,4.39,0,0,0-.38-1.89,4.47,4.47,0,0,0-1.06-1.38,7.15,7.15,0,0,0-1.58-1c-.43-.21-.89-.41-1.36-.6V16.62a8.35,8.35,0,0,1,1.31.21,15.25,15.25,0,0,1,1.7.52l.62-2.46a10,10,0,0,0-1.49-.46,13.53,13.53,0,0,0-2.14-.34V11.4H21.21v2.79a5,5,0,0,0-3.14,1.56,4.37,4.37,0,0,0-1,2.92,3.7,3.7,0,0,0,1.36,3,5.78,5.78,0,0,0,1.37.86c.47.22.95.41,1.43.58V27.9a8.6,8.6,0,0,1-1.78-.29,12,12,0,0,1-1.93-.72l-.85,2.36a10.46,10.46,0,0,0,1.66.66,12.83,12.83,0,0,0,2.9.49v3ZM24,24.32a2.63,2.63,0,0,1,.77.75,1.8,1.8,0,0,1,.27,1,1.62,1.62,0,0,1-.66,1.35,1.74,1.74,0,0,1-.58.28V24.21Zm-3-4.49a2,2,0,0,1-.6-.6,1.62,1.62,0,0,1-.2-.83,1.57,1.57,0,0,1,.68-1.34,1.88,1.88,0,0,1,.37-.21V20Z"/><path class="cls-3" d="M63.69,59.24a4,4,0,0,0,1.52-1.3A3.42,3.42,0,0,0,65.75,56a3.88,3.88,0,0,0-.51-2.06,3.82,3.82,0,0,0-1.42-1.34,6.37,6.37,0,0,0-1.41-.55V51a1.17,1.17,0,1,0-2.33,0v.69l-.42,0V51a1.17,1.17,0,1,0-2.33,0v.7l-.68,0c-.4,0-.8.07-1.18.13s-.75.11-1.09.17V67.6a11.64,11.64,0,0,0,2.27.33l.7,0a1.1,1.1,0,0,0,0,.18v1a1.17,1.17,0,0,0,2.33,0v-1a.59.59,0,0,0,0-.14h.46a.77.77,0,0,0,0,.15v1a1.17,1.17,0,0,0,2.33,0v-1a1.16,1.16,0,0,0-.08-.42,6.69,6.69,0,0,0,2.4-1,4.18,4.18,0,0,0,1.81-3.71,4,4,0,0,0-.7-2.4A4.19,4.19,0,0,0,63.69,59.24Zm-6.44-5.11c.24,0,.54-.06.89-.07s.74,0,1.19,0a5.86,5.86,0,0,1,2.55.48,1.69,1.69,0,0,1,1,1.64,1.72,1.72,0,0,1-1,1.7,5.86,5.86,0,0,1-2.61.47h-2Zm6,10.17a2.34,2.34,0,0,1-.9.77,4.3,4.3,0,0,1-1.34.4,11.06,11.06,0,0,1-1.68.12l-1,0-1-.07V60.62h2.56a5.94,5.94,0,0,1,2.75.53,2,2,0,0,1,1,1.9A2.19,2.19,0,0,1,63.22,64.3Z"/></svg>