<svg id="Capa_1" data-name="Capa 1" xmlns="http://www.w3.org/2000/svg" xmlns:xlink="http://www.w3.org/1999/xlink" viewBox="0 0 71.1 71.1"><defs><style>.cls-1{fill:none;}.cls-2{clip-path:url(#clip-path);}.cls-3{opacity:0.46;fill:url(#Degradado_sin_nombre_15);}.cls-4{fill:#17375d;}</style><clipPath id="clip-path"><rect class="cls-1" x="-864.17" y="-331.8" width="1112.53" height="306.72" rx="18"/></clipPath><linearGradient id="Degradado_sin_nombre_15" x1="38.62" y1="59.12" x2="69" y2="28.75" gradientUnits="userSpaceOnUse"><stop offset="0" stop-color="#41b07d"/><stop offset="1" stop-color="#15375c"/></linearGradient></defs><g class="cls-2"><image width="1200" height="900" transform="translate(-907.52 -451) scale(1.23)" xlink:href="../eqGA8IgjoXBFN-22_v0MSAV_s2FFpJVYLZ2oXl3hEGqg.jpg"/></g><rect class="cls-3" x="36.86" y="26.98" width="33.9" height="33.9" rx="6"/><path class="cls-4" d="M40.74,33.49a11.28,11.28,0,0,0,6.35-2,11.59,11.59,0,0,0,4.21-5.22,11.82,11.82,0,0,0-2.47-12.69A11.37,11.37,0,0,0,43,10.44a11.23,11.23,0,0,0-6.6.66,11.52,11.52,0,0,0-5.13,4.29,11.8,11.8,0,0,0,1.43,14.69A11.35,11.35,0,0,0,40.74,33.49Zm0-20.85a8.91,8.91,0,0,1,5.07,1.52,9.18,9.18,0,0,1,3.38,4.15,9.38,9.38,0,0,1-1.94,10.11A9,9,0,0,1,42.59,31a8.87,8.87,0,0,1-5.26-.53A9.11,9.11,0,0,1,33.25,27a9.4,9.4,0,0,1,1.12-11.66A9,9,0,0,1,40.74,12.64Z"/><path class="cls-4" d="M44.35,34.62H38A16.88,16.88,0,0,0,26,39.7a17.5,17.5,0,0,0-5,12.23,1.4,1.4,0,0,0,.06.5,1.38,1.38,0,0,0,.25.42,1,1,0,0,0,.4.29,1.12,1.12,0,0,0,.48.1,1.18,1.18,0,0,0,.48-.1,1,1,0,0,0,.39-.29,1.2,1.2,0,0,0,.25-.42,1.06,1.06,0,0,0,.06-.5,15.06,15.06,0,0,1,4.29-10.52A14.49,14.49,0,0,1,38,37.05h6.37a14.47,14.47,0,0,1,10.33,4.36A15.08,15.08,0,0,1,59,51.93a1.21,1.21,0,0,0,.35.86,1.15,1.15,0,0,0,.84.35,1.18,1.18,0,0,0,.84-.35,1.25,1.25,0,0,0,.35-.86,17.5,17.5,0,0,0-5-12.23A16.88,16.88,0,0,0,44.35,34.62Z"/><path class="cls-4" d="M23.61,31.07a1.19,1.19,0,0,0,.85-.35,1.26,1.26,0,0,0,0-1.72,1.23,1.23,0,0,0-.85-.35H13.76v-10a1.2,1.2,0,0,0-.35-.86,1.16,1.16,0,0,0-.39-.26,1.13,1.13,0,0,0-.45-.09,1.15,1.15,0,0,0-.84.35,1.2,1.2,0,0,0-.35.86v10H1.52A1.22,1.22,0,0,0,.68,29a1.26,1.26,0,0,0,0,1.72,1.18,1.18,0,0,0,.84.35h9.86v10a1.25,1.25,0,0,0,.35.86,1.18,1.18,0,0,0,1.68,0,1.25,1.25,0,0,0,.35-.86v-10Z"/></svg>